<svg preserveAspectRatio="none" overflow="visible" style="display: block;" width="825" height="1125" viewBox="0 0 825 1125" fill="none" xmlns="http://www.w3.org/2000/svg">
<g id="bam2[face,3]">
<rect width="825" height="1125" fill="white"/>
<g id="Vector">
<path d="M119.437 170.475C156.933 168.454 186.007 166.208 206.658 163.738C204.697 169.576 203.197 175.751 202.159 182.263C201.12 188.774 200.601 194.669 200.601 199.945H76.8653L76.6922 196.409C76.6922 185.406 79.9803 175.863 86.5565 167.78C93.248 159.697 102.535 152.231 114.419 145.382C117.88 143.362 123.302 140.779 130.686 137.636C140.262 133.594 147.646 130.058 152.837 127.026C158.029 123.883 160.625 120.795 160.625 117.764C160.625 113.947 159.01 110.916 155.779 108.67C152.549 106.425 147.53 105.302 140.723 105.302C133.224 105.302 127.513 107.155 123.591 110.86C119.783 114.564 117.88 119.28 117.88 125.006C117.88 126.802 118.053 128.654 118.399 130.563C103.862 128.767 89.7292 127.532 76 126.858C76 117.315 78.5382 108.726 83.6145 101.092C88.8062 93.3456 96.5361 87.2269 106.804 82.7362C117.188 78.2454 129.878 76 144.877 76C158.606 76 170.028 77.8524 179.142 81.5573C188.372 85.15 195.121 89.753 199.39 95.3664C203.774 100.868 205.966 106.537 205.966 112.375C205.966 119.111 204.408 124.893 201.293 129.721C198.294 134.548 193.91 138.871 188.141 142.688C182.488 146.393 174.873 150.435 165.297 154.813C163.913 155.487 161.663 156.273 158.548 157.171C155.433 157.957 153.472 158.462 152.664 158.686C144.473 161.044 137.954 163.009 133.109 164.58C128.263 166.152 123.706 168.117 119.437 170.475Z" fill="#00AD3D"/>
<path d="M153.619 268.953C153.465 268.953 153.388 268.86 153.388 268.673L153.504 230.108C153.504 229.959 153.58 229.884 153.734 229.884H160.772C160.926 229.884 161.06 229.959 161.176 230.108L166.425 237.518L171.675 230.108C171.79 229.959 171.925 229.884 172.078 229.884H179.174C179.328 229.884 179.404 229.959 179.404 230.108L179.52 268.673C179.52 268.86 179.443 268.953 179.289 268.953H172.771C172.617 268.953 172.54 268.86 172.54 268.673L172.482 240.044L166.425 248.577L160.426 240.044L160.368 268.673C160.368 268.86 160.291 268.953 160.137 268.953H153.619Z" fill="#00AD3D"/>
<path d="M126.809 268.673L133.962 230.108C134.001 229.959 134.097 229.884 134.25 229.884H142.615C142.769 229.884 142.865 229.959 142.903 230.108L149.768 268.673C149.806 268.86 149.729 268.953 149.537 268.953H143.134C142.98 268.953 142.884 268.86 142.846 268.673L142.211 264.575H134.366L133.731 268.673C133.693 268.86 133.597 268.953 133.443 268.953H127.04C126.886 268.953 126.809 268.86 126.809 268.673ZM135.52 258.568H141.057L138.692 242.795L138.346 240.718L138.115 242.795L135.52 258.568Z" fill="#00AD3D"/>
<path d="M103.369 268.953C103.215 268.953 103.139 268.86 103.139 268.673L103.254 230.108C103.254 229.959 103.331 229.884 103.485 229.884H114.56C116.752 229.884 118.714 230.408 120.444 231.455C122.175 232.466 123.54 233.813 124.54 235.497C125.54 237.181 126.04 239.015 126.04 240.998C126.04 242.608 125.655 244.104 124.886 245.489C124.155 246.874 123.271 247.996 122.232 248.857C123.348 249.942 124.213 251.196 124.828 252.618C125.444 254.04 125.751 255.537 125.751 257.109C125.751 259.28 125.213 261.263 124.136 263.059C123.059 264.856 121.598 266.296 119.752 267.382C117.945 268.429 115.926 268.953 113.695 268.953H103.369ZM110.176 245.377H114.56C115.906 245.377 116.983 244.928 117.791 244.03C118.637 243.094 119.06 242.084 119.06 240.998C119.06 239.801 118.618 238.772 117.733 237.911C116.848 237.013 115.791 236.564 114.56 236.564H110.176V245.377ZM110.118 262.105H113.695C115.079 262.105 116.272 261.618 117.272 260.645C118.271 259.635 118.771 258.456 118.771 257.109C118.771 255.762 118.271 254.602 117.272 253.629C116.272 252.656 115.079 252.169 113.695 252.169H110.176L110.118 262.105Z" fill="#00AD3D"/>
<path d="M705.563 954.525C668.067 956.546 638.993 958.792 618.342 961.262C620.303 955.424 621.803 949.249 622.841 942.737C623.88 936.226 624.399 930.331 624.399 925.055H748.135L748.308 928.591C748.308 939.594 745.02 949.136 738.444 957.22C731.752 965.303 722.465 972.769 710.581 979.618C707.12 981.638 701.698 984.221 694.314 987.364C684.738 991.406 677.354 994.942 672.163 997.974C666.971 1001.12 664.375 1004.2 664.375 1007.24C664.375 1011.05 665.99 1014.08 669.221 1016.33C672.451 1018.57 677.47 1019.7 684.277 1019.7C691.776 1019.7 697.487 1017.85 701.409 1014.14C705.217 1010.44 707.12 1005.72 707.12 999.994C707.12 998.198 706.947 996.346 706.601 994.437C721.138 996.233 735.271 997.468 749 998.142C749 1007.68 746.462 1016.27 741.386 1023.91C736.194 1031.65 728.464 1037.77 718.196 1042.26C707.812 1046.75 695.122 1049 680.123 1049C666.394 1049 654.972 1047.15 645.858 1043.44C636.628 1039.85 629.879 1035.25 625.61 1029.63C621.226 1024.13 619.034 1018.46 619.034 1012.62C619.034 1005.89 620.592 1000.11 623.707 995.279C626.706 990.452 631.09 986.129 636.859 982.312C642.512 978.607 650.127 974.565 659.703 970.187C661.087 969.513 663.337 968.727 666.452 967.829C669.567 967.043 671.528 966.538 672.336 966.314C680.527 963.956 687.046 961.991 691.891 960.42C696.737 958.848 701.294 956.883 705.563 954.525Z" fill="#00AD3D"/>
<path d="M671.381 856.047C671.535 856.047 671.612 856.14 671.612 856.327L671.497 894.892C671.497 895.042 671.42 895.116 671.266 895.116H664.228C664.074 895.116 663.94 895.042 663.824 894.892L658.575 887.482L653.325 894.892C653.21 895.042 653.076 895.116 652.922 895.116H645.826C645.673 895.116 645.596 895.042 645.596 894.892L645.48 856.327C645.48 856.14 645.557 856.047 645.711 856.047H652.229C652.383 856.047 652.46 856.14 652.46 856.327L652.518 884.956L658.575 876.424L664.574 884.956L664.632 856.327C664.632 856.14 664.709 856.047 664.863 856.047H671.381Z" fill="#00AD3D"/>
<path d="M698.191 856.327L691.038 894.892C691 895.042 690.903 895.116 690.75 895.116H682.385C682.231 895.116 682.135 895.042 682.097 894.892L675.232 856.327C675.194 856.14 675.271 856.047 675.463 856.047H681.866C682.02 856.047 682.116 856.14 682.154 856.327L682.789 860.425H690.634L691.269 856.327C691.307 856.14 691.403 856.047 691.557 856.047H697.96C698.114 856.047 698.191 856.14 698.191 856.327ZM689.48 866.432H683.943L686.308 882.206L686.654 884.282L686.885 882.206L689.48 866.432Z" fill="#00AD3D"/>
<path d="M721.631 856.047C721.785 856.047 721.862 856.14 721.862 856.327L721.746 894.892C721.746 895.042 721.669 895.116 721.515 895.116H710.44C708.248 895.116 706.286 894.593 704.556 893.545C702.825 892.534 701.46 891.187 700.46 889.503C699.46 887.819 698.96 885.985 698.96 884.002C698.96 882.393 699.345 880.896 700.114 879.511C700.845 878.126 701.729 877.004 702.768 876.143C701.652 875.058 700.787 873.804 700.172 872.382C699.556 870.96 699.249 869.463 699.249 867.891C699.249 865.721 699.787 863.737 700.864 861.941C701.941 860.145 703.402 858.704 705.248 857.619C707.056 856.571 709.075 856.047 711.305 856.047H721.631ZM714.824 879.623H710.44C709.094 879.623 708.017 880.072 707.209 880.971C706.363 881.906 705.94 882.917 705.94 884.002C705.94 885.199 706.383 886.228 707.267 887.089C708.152 887.987 709.209 888.436 710.44 888.436H714.824V879.623ZM714.882 862.895H711.305C709.921 862.895 708.728 863.382 707.729 864.355C706.729 865.365 706.229 866.544 706.229 867.891C706.229 869.238 706.729 870.399 707.729 871.372C708.728 872.345 709.921 872.831 711.305 872.831H714.824L714.882 862.895Z" fill="#00AD3D"/>
<path d="M276.894 626.334C278.405 639.551 288.843 818.566 291.284 846.098C306.973 861.66 335.709 854.586 344.309 846.375C345.878 810.263 334.83 654.499 334.249 620.441C335.585 600.84 359.033 592.706 344.215 590.565C329.397 588.424 281.63 591.271 265.65 596.348C244.577 603.042 274.166 602.469 276.894 626.334Z" fill="#DBE3B2"/>
<path d="M251.149 593.974C253.811 591.03 255.242 590.725 256.484 590.022C258.968 588.861 260.771 588.302 262.74 587.669C291.884 581.094 316.182 579.968 345.518 582.03C346.617 582.199 347.718 582.398 349.035 582.773C350.514 583.32 352.166 583.41 355.185 586.317C356.683 587.783 357.971 590.748 357.919 592.984C357.931 595.291 357.35 596.67 356.93 597.665C356.025 599.617 355.228 600.56 354.586 601.409C351.966 604.618 350.105 606.43 348.402 608.593C345.11 612.677 343.166 616.604 342.767 620.731C344.711 695.279 350.581 770.653 349.198 846.576C349.178 847.465 348.374 849.139 347.735 849.775C340.032 856.188 331.71 858.064 323.174 859.155C311.223 860.472 297.536 857.807 288.71 848.556C288.281 848.149 287.787 846.974 287.693 846.399L286.464 838.265C285.281 830.096 284.225 821.848 283.199 813.694C277.778 769.988 273.85 726.248 271.083 682.418C269.893 664.072 268.823 644.839 267.415 627.358C266.861 622.558 264.88 618.99 260.779 615.427C259.749 614.533 258.601 613.656 257.247 612.671C255.805 611.523 254.607 611.113 251.573 607.935C250.793 606.959 249.536 605.629 248.877 602.527C248.109 599.221 249.848 595.341 251.149 593.974ZM275.451 603.513C281.161 609.031 285.643 617.221 286.373 625.309C288.035 644.437 289.061 662.679 290.274 681.272C293.043 725.132 294.413 769.009 294.713 812.976C294.796 823.471 294.787 834.208 294.869 844.545C301.988 850.6 312.373 852.173 322.059 850.697C328.285 849.766 335.037 847.507 339.365 844.249C337.397 770.379 329.262 695.66 325.738 620.58C325.737 620.443 325.744 620.031 325.755 619.893C326.17 611.789 329.957 604.325 334.251 598.737C315.29 598.277 293.61 599.871 275.451 603.513Z" fill="#00AD3D"/>
<path d="M330.192 537.572C328.741 524.333 312.137 342.767 309.823 315.185C294.171 299.661 265.334 306.882 256.673 315.15C254.927 351.348 272.254 509.609 272.673 543.74C271.239 563.39 240.295 580.746 262.539 573.727C284.784 566.707 322.048 563.629 341.319 567.573C362.931 571.997 332.812 561.477 330.192 537.572Z" fill="#DBE3B2"/>
<path d="M354.765 575.522C354.312 575.867 354.031 576.044 353.679 576.251C353.007 576.641 352.39 576.9 351.842 577.089C350.638 577.484 350.168 577.524 349.638 577.606C349.124 577.674 348.68 577.703 348.274 577.715C347.96 577.724 347.704 577.724 347.44 577.718C346.93 577.707 346.398 577.667 346.086 577.638C343.22 577.339 341.455 576.923 339.387 576.509C316.502 572.788 288.578 575.47 265.281 581.952C263.19 582.575 261.408 583.159 258.466 583.672C257.762 583.775 256.805 583.941 255.279 583.898C254.806 583.88 254.283 583.838 253.682 583.733C253.366 583.676 253.113 583.624 252.673 583.504C252.183 583.369 251.644 583.184 251.069 582.916C249.927 582.361 248.621 581.576 247.35 579.816C246.15 578.153 245.741 576.141 245.715 575.012C245.702 572.341 246.241 571.535 246.56 570.653C246.941 569.8 247.158 569.457 247.448 568.976C247.949 568.168 248.404 567.566 248.762 567.102C251.74 563.412 254.005 561.131 256.222 558.387C260.454 553.283 263.725 547.812 264.19 543.448C261.219 468.421 251.432 392.128 251.815 314.927C251.839 314.051 252.637 312.396 253.267 311.77C260.693 305.544 268.725 303.6 276.968 302.381C289.163 300.789 303.302 303.221 312.398 312.729C312.83 313.139 313.326 314.317 313.417 314.899L316.011 331.509C316.87 337.091 317.718 342.695 318.538 348.25C325.132 392.903 330.5 437.582 334.643 482.44C336.326 500.524 337.965 518.901 339.682 536.589C340.205 541.712 342.745 546.773 346.772 551.595C348.82 554.07 351.018 556.191 353.967 559.112C354.346 559.498 354.752 559.912 355.273 560.496C355.556 560.818 355.746 561.035 356.155 561.564C356.531 562.084 356.891 562.48 357.561 563.856C357.759 564.486 360.328 568.941 356.183 574.183C355.731 574.705 355.244 575.152 354.765 575.522ZM327.502 557.05C324.063 551.657 321.434 545.393 320.701 538.558C318.836 520.34 317.184 502.284 315.492 484.115C311.348 439.238 308.53 394.333 307.042 349.226C306.693 338.429 306.402 327.457 306.253 316.747C298.952 310.53 288.187 309.101 278.264 310.81C272.265 311.829 265.805 314.075 261.611 317.238C264.568 391.852 276.531 467.104 281.142 543.642C281.142 543.779 281.136 544.187 281.125 544.324C280.54 551.225 278.032 556.815 274.998 561.646C292.276 557.811 309.39 556.016 327.502 557.05Z" fill="#00AD3D"/>
<path d="M549.304 626.334C547.793 639.551 537.356 818.566 534.915 846.098C519.225 861.66 490.49 854.586 481.89 846.375C480.321 810.263 491.368 654.499 491.95 620.441C490.613 600.84 467.166 592.706 481.984 590.565C496.802 588.424 544.568 591.271 560.549 596.348C581.621 603.042 552.032 602.469 549.304 626.334Z" fill="#DBE3B2"/>
<path d="M575.049 593.974C572.387 591.03 570.957 590.725 569.715 590.022C567.231 588.861 565.428 588.302 563.459 587.669C534.314 581.094 510.017 579.968 480.681 582.03C479.582 582.199 478.48 582.398 477.164 582.773C475.685 583.32 474.033 583.41 471.014 586.317C469.516 587.783 468.228 590.748 468.28 592.984C468.267 595.291 468.849 596.67 469.268 597.665C470.174 599.617 470.971 600.56 471.613 601.409C474.233 604.618 476.093 606.43 477.797 608.593C481.089 612.677 483.033 616.604 483.431 620.731C481.487 695.279 475.618 770.653 477.001 846.576C477.02 847.465 477.825 849.139 478.463 849.775C486.166 856.188 494.489 858.064 503.025 859.155C514.976 860.472 528.663 857.807 537.488 848.556C537.918 848.149 538.412 846.974 538.505 846.399L539.735 838.265C540.918 830.096 541.974 821.848 543 813.694C548.421 769.988 552.348 726.248 555.116 682.418C556.306 664.072 557.376 644.839 558.783 627.358C559.337 622.558 561.319 618.99 565.42 615.427C566.449 614.533 567.597 613.656 568.952 612.671C570.394 611.523 571.592 611.113 574.626 607.935C575.406 606.959 576.662 605.629 577.321 602.527C578.09 599.221 576.351 595.341 575.049 593.974ZM550.747 603.513C545.037 609.031 540.556 617.221 539.825 625.309C538.163 644.437 537.138 662.679 535.925 681.272C533.156 725.132 531.785 769.009 531.486 812.976C531.403 823.471 531.411 834.208 531.33 844.545C524.211 850.6 513.826 852.173 504.14 850.697C497.914 849.766 491.162 847.507 486.833 844.249C488.802 770.379 496.937 695.66 500.461 620.58C500.462 620.443 500.454 620.031 500.444 619.893C500.029 611.789 496.242 604.325 491.948 598.737C510.909 598.277 532.589 599.871 550.747 603.513Z" fill="#00AD3D"/>
<path d="M496.007 537.572C497.458 524.333 514.062 342.767 516.376 315.185C532.028 299.661 560.865 306.882 569.526 315.15C571.272 351.348 553.945 509.609 553.526 543.74C554.96 563.39 585.904 580.746 563.66 573.727C541.415 566.707 504.151 563.629 484.88 567.573C463.268 571.997 493.387 561.477 496.007 537.572Z" fill="#DBE3B2"/>
<path d="M471.434 575.522C471.887 575.867 472.168 576.044 472.52 576.251C473.192 576.641 473.809 576.9 474.358 577.089C475.561 577.484 476.031 577.524 476.562 577.606C477.075 577.674 477.519 577.703 477.925 577.715C478.239 577.724 478.495 577.724 478.759 577.718C479.269 577.707 479.801 577.667 480.113 577.638C482.979 577.339 484.744 576.923 486.812 576.509C509.697 572.788 537.621 575.47 560.918 581.952C563.009 582.575 564.791 583.159 567.733 583.672C568.437 583.775 569.394 583.941 570.92 583.898C571.393 583.88 571.916 583.838 572.517 583.733C572.833 583.676 573.086 583.624 573.526 583.504C574.016 583.369 574.555 583.184 575.13 582.916C576.272 582.361 577.578 581.576 578.85 579.816C580.049 578.153 580.458 576.141 580.484 575.012C580.497 572.341 579.958 571.535 579.639 570.653C579.258 569.8 579.041 569.457 578.751 568.976C578.25 568.168 577.795 567.566 577.437 567.102C574.459 563.412 572.194 561.131 569.977 558.387C565.745 553.283 562.474 547.812 562.009 543.448C564.98 468.421 574.767 392.128 574.384 314.927C574.36 314.051 573.562 312.396 572.932 311.77C565.506 305.544 557.475 303.6 549.231 302.381C537.036 300.789 522.897 303.221 513.801 312.729C513.369 313.139 512.873 314.317 512.782 314.899L510.188 331.509C509.329 337.091 508.481 342.695 507.661 348.25C501.067 392.903 495.699 437.582 491.556 482.44C489.873 500.524 488.234 518.901 486.517 536.589C485.994 541.712 483.454 546.773 479.427 551.595C477.379 554.07 475.181 556.191 472.232 559.112C471.853 559.498 471.447 559.912 470.926 560.496C470.643 560.818 470.453 561.035 470.044 561.564C469.668 562.084 469.308 562.48 468.638 563.856C468.44 564.486 465.871 568.941 470.016 574.183C470.468 574.705 470.955 575.152 471.434 575.522ZM498.698 557.05C502.136 551.657 504.765 545.393 505.498 538.558C507.363 520.34 509.015 502.284 510.707 484.115C514.851 439.238 517.669 394.333 519.157 349.226C519.506 338.429 519.797 327.457 519.946 316.747C527.247 310.53 538.012 309.101 547.935 310.81C553.934 311.829 560.395 314.075 564.588 317.238C561.631 391.852 549.668 467.104 545.057 543.642C545.057 543.779 545.063 544.187 545.075 544.324C545.659 551.225 548.167 556.815 551.201 561.646C533.924 557.811 516.809 556.016 498.698 557.05Z" fill="#00AD3D"/>
<path d="M154.895 371.124C225.68 403.593 283.167 478.173 234.598 505.462C147.959 525.766 196.331 425.278 154.895 371.124Z" fill="#DBE3B2"/>
<path d="M207.529 451.094C207.849 450.901 208.232 450.833 208.596 450.913C208.96 450.992 209.278 451.21 209.483 451.517C209.687 451.825 209.759 452.198 209.696 452.556C209.321 454.675 209.092 456.669 208.976 458.788C207.369 488.954 234.16 511.179 260.511 523.23C268.244 526.696 276.156 529.955 284.373 532.205C286.408 532.754 288.548 533.23 290.598 533.542C290.954 533.592 291.296 533.749 291.547 534.006C291.798 534.264 291.941 534.598 291.941 534.944C291.941 535.29 291.8 535.626 291.548 535.883C291.297 536.141 290.955 536.299 290.599 536.35C288.362 536.662 285.973 536.725 283.692 536.645C274.461 536.264 265.506 533.712 257.271 530.017C229.414 517.549 200.671 491.117 205.49 458.454C205.82 456.209 206.272 454.128 206.88 451.946C206.979 451.595 207.209 451.288 207.529 451.094Z" fill="#00AD3D"/>
<path d="M649.021 613.633C621.853 659.424 520.75 720.682 569.318 747.97C617.888 775.258 658.943 641.308 649.021 613.633Z" fill="#DBE3B2"/>
<path d="M613.758 691.28C613.403 691.167 613.015 691.195 612.678 691.358C612.34 691.52 612.084 691.806 611.95 692.146C611.176 694.111 610.246 696.059 609.214 697.943C593.573 723.963 566.553 741.55 540.642 758.063C533.112 762.694 525.656 767.535 518.238 772.488C516.414 773.709 514.482 774.988 512.682 776.194C512.385 776.391 512.147 776.675 512.038 777.014C511.928 777.353 511.955 777.716 512.111 778.027C512.268 778.338 512.548 778.582 512.891 778.706C513.233 778.829 513.611 778.822 513.953 778.714C516.067 778.053 518.297 777.254 520.395 776.457C528.909 773.197 537.071 769.114 544.755 764.388C571.143 747.557 598.298 728.309 612.379 699.408C613.287 697.325 614.074 695.177 614.688 693.021C614.787 692.67 614.754 692.293 614.582 691.967C614.409 691.641 614.113 691.393 613.758 691.28Z" fill="#00AD3D"/>
<path d="M158.829 491.917C206.657 491.917 237.309 498.579 221.681 526.668C206.053 554.758 163.721 521.535 158.829 491.917Z" fill="#DBE3B2"/>
<path d="M183.616 510.05C183.853 509.777 184.193 509.608 184.564 509.572C184.935 509.537 185.303 509.642 185.603 509.85C186.594 510.531 187.646 511.167 188.719 511.748C204.135 519.451 222.311 520.521 239.788 521.341C244.812 521.502 249.842 521.988 254.931 522.71C256.189 522.89 257.509 523.079 258.756 523.276C259.099 523.327 259.438 523.46 259.7 523.691C259.962 523.921 260.125 524.227 260.158 524.555C260.19 524.883 260.087 525.215 259.874 525.49C259.661 525.764 259.356 525.957 259.029 526.07C257.798 526.498 256.472 526.871 255.196 527.192C250.031 528.474 244.756 528.988 239.53 528.82C221.413 527.968 202.22 525.473 186.774 514.58C185.713 513.774 184.687 512.905 183.741 511.989C183.481 511.736 183.314 511.399 183.289 511.038C183.264 510.676 183.379 510.322 183.616 510.05Z" fill="#00AD3D"/>
<path d="M670.407 708.895C647.064 733.283 584.185 718.438 593.909 760.866C624.212 793.078 668.611 725.961 670.407 708.895Z" fill="#DBE3B2"/>
<path d="M641.541 739.729C641.303 739.455 640.962 739.284 640.591 739.249C640.218 739.214 639.849 739.321 639.55 739.534C638.376 740.365 637.133 741.154 635.846 741.903C617.676 751.736 596.427 756.194 575.975 756.67C570.113 756.702 564.317 756.731 558.421 756.287C556.945 756.173 555.452 756.02 553.972 755.823C553.624 755.775 553.256 755.814 552.937 755.973C552.618 756.13 552.374 756.391 552.255 756.706C552.136 757.021 552.15 757.375 552.288 757.696C552.426 758.017 552.681 758.278 552.979 758.46C554.335 759.277 555.783 760.006 557.262 760.636C563.196 763.158 569.686 764.193 576.03 764.151C598.165 763.623 620.068 757.496 637.838 744.707C639.092 743.744 640.293 742.733 641.412 741.674C641.677 741.422 641.849 741.084 641.875 740.721C641.901 740.358 641.78 740.003 641.541 739.729Z" fill="#00AD3D"/>
</g>
</g>
</svg>
