<svg xmlns="http://www.w3.org/2000/svg" viewBox="0 0 825 1125" fill="none"><path d="M76 76H203.94V97.7718C180.849 131.189 163.001 164.831 150.396 198.699H102.684C115.525 168.207 132.43 137.884 153.4 107.729C120.767 107.729 94.9671 108.292 76 109.417V76Z" fill="#211C1D"/><path d="M749 1049H621.06V1027.23C644.151 993.811 661.999 960.169 674.604 926.301H722.316C709.475 956.793 692.57 987.116 671.6 1017.27C704.233 1017.27 730.033 1016.71 749 1015.58V1049Z" fill="#211C1D"/><g fill="#211C1D" transform="translate(95.91864000000001 260) scale(0.02232 -0.031)"><path d="M304 -14C457 -14 563 74 563 196C563 317 499 380 366 424L314 441C228 470 190 500 190 546C190 589 232 616 296 616C351 616 389 594 413 534C416 526 421 523 429 525L539 553C547 555 551 561 548 569C511 691 419 748 296 748C157 748 50 662 50 542C50 437 121 368 238 328L303 305C378 278 423 249 423 196C423 141 375 118 304 118C229 118 187 148 161 212C158 220 153 223 145 221L41 196C33 194 29 188 32 180C71 53 167 -14 304 -14Z" transform="translate(0 0)"/><path d="M93 0H202C210 0 215 5 215 13V313H555V13C555 5 560 0 568 0H677C685 0 690 5 690 13V721C690 729 685 734 677 734H568C560 734 555 729 555 721V440H215V721C215 729 210 734 202 734H93C85 734 80 729 80 721V13C80 5 85 0 93 0Z" transform="translate(597 0)"/><path d="M32 0H156C163 0 168 3 171 10L223 147H528L580 10C583 3 588 0 595 0H721C730 0 735 6 731 15L438 724C435 731 430 734 423 734H330C323 734 318 731 315 724L22 15C18 6 23 0 32 0ZM270 272 375 550 480 272Z" transform="translate(1367 0)"/><path d="M93 0H337C581 0 708 137 708 367C708 598 581 734 337 734H93C85 734 80 729 80 721V13C80 5 85 0 93 0ZM322 607C485 607 568 521 568 367C568 213 485 127 322 127H215V607Z" transform="translate(2120 0)"/><path d="M426 -14C640 -14 796 137 796 367C796 597 640 748 426 748C212 748 56 597 56 367C56 137 212 -14 426 -14ZM426 118C285 118 196 222 196 367C196 512 285 616 426 616C567 616 656 512 656 367C656 222 567 118 426 118Z" transform="translate(2884 0)"/><path d="M292 0H384C391 0 396 3 398 11L555 489L712 11C714 3 719 0 726 0H818C825 0 831 3 833 10L1089 719C1092 728 1087 734 1078 734H954C947 734 942 731 940 723L778 227L615 723C613 731 608 734 601 734H511C504 734 499 731 497 723L334 228L173 723C171 731 166 734 159 734H32C23 734 18 728 21 719L277 10C279 3 285 0 292 0Z" transform="translate(3736 0)"/></g><g transform="rotate(180 412.5 562.5)"><g fill="#211C1D" transform="translate(95.91864000000001 260) scale(0.02232 -0.031)"><path d="M304 -14C457 -14 563 74 563 196C563 317 499 380 366 424L314 441C228 470 190 500 190 546C190 589 232 616 296 616C351 616 389 594 413 534C416 526 421 523 429 525L539 553C547 555 551 561 548 569C511 691 419 748 296 748C157 748 50 662 50 542C50 437 121 368 238 328L303 305C378 278 423 249 423 196C423 141 375 118 304 118C229 118 187 148 161 212C158 220 153 223 145 221L41 196C33 194 29 188 32 180C71 53 167 -14 304 -14Z" transform="translate(0 0)"/><path d="M93 0H202C210 0 215 5 215 13V313H555V13C555 5 560 0 568 0H677C685 0 690 5 690 13V721C690 729 685 734 677 734H568C560 734 555 729 555 721V440H215V721C215 729 210 734 202 734H93C85 734 80 729 80 721V13C80 5 85 0 93 0Z" transform="translate(597 0)"/><path d="M32 0H156C163 0 168 3 171 10L223 147H528L580 10C583 3 588 0 595 0H721C730 0 735 6 731 15L438 724C435 731 430 734 423 734H330C323 734 318 731 315 724L22 15C18 6 23 0 32 0ZM270 272 375 550 480 272Z" transform="translate(1367 0)"/><path d="M93 0H337C581 0 708 137 708 367C708 598 581 734 337 734H93C85 734 80 729 80 721V13C80 5 85 0 93 0ZM322 607C485 607 568 521 568 367C568 213 485 127 322 127H215V607Z" transform="translate(2120 0)"/><path d="M426 -14C640 -14 796 137 796 367C796 597 640 748 426 748C212 748 56 597 56 367C56 137 212 -14 426 -14ZM426 118C285 118 196 222 196 367C196 512 285 616 426 616C567 616 656 512 656 367C656 222 567 118 426 118Z" transform="translate(2884 0)"/><path d="M292 0H384C391 0 396 3 398 11L555 489L712 11C714 3 719 0 726 0H818C825 0 831 3 833 10L1089 719C1092 728 1087 734 1078 734H954C947 734 942 731 940 723L778 227L615 723C613 731 608 734 601 734H511C504 734 499 731 497 723L334 228L173 723C171 731 166 734 159 734H32C23 734 18 728 21 719L277 10C279 3 285 0 292 0Z" transform="translate(3736 0)"/></g></g><g transform="translate(412 310)"><path d="M24 -54 A58 58 0 1 0 24 54 A47 47 0 0 1 24 -54Z" fill="#211C1D" fill-opacity=".32" stroke="#211C1D" stroke-width="9" stroke-linejoin="round"/></g><g transform="translate(290 455)"><path d="M24 -54 A58 58 0 1 0 24 54 A47 47 0 0 1 24 -54Z" fill="#211C1D" fill-opacity=".32" stroke="#211C1D" stroke-width="9" stroke-linejoin="round"/></g><g transform="translate(535 455)"><path d="M24 -54 A58 58 0 1 0 24 54 A47 47 0 0 1 24 -54Z" fill="#211C1D" fill-opacity=".32" stroke="#211C1D" stroke-width="9" stroke-linejoin="round"/></g><g transform="translate(290 635)"><path d="M24 -54 A58 58 0 1 0 24 54 A47 47 0 0 1 24 -54Z" fill="#211C1D" fill-opacity=".32" stroke="#211C1D" stroke-width="9" stroke-linejoin="round"/></g><g transform="translate(535 635)"><path d="M24 -54 A58 58 0 1 0 24 54 A47 47 0 0 1 24 -54Z" fill="#211C1D" fill-opacity=".32" stroke="#211C1D" stroke-width="9" stroke-linejoin="round"/></g><g transform="translate(290 815)"><path d="M24 -54 A58 58 0 1 0 24 54 A47 47 0 0 1 24 -54Z" fill="#211C1D" fill-opacity=".32" stroke="#211C1D" stroke-width="9" stroke-linejoin="round"/></g><g transform="translate(535 815)"><path d="M24 -54 A58 58 0 1 0 24 54 A47 47 0 0 1 24 -54Z" fill="#211C1D" fill-opacity=".32" stroke="#211C1D" stroke-width="9" stroke-linejoin="round"/></g></svg>
