<svg xmlns="http://www.w3.org/2000/svg" viewBox="0 0 825 1125" fill="none"><path d="M145.45 76C158.678 76 170.43 78.5237 180.706 83.5712C191.1 88.5065 199.131 95.4047 204.801 104.266C210.588 113.127 213.482 123.222 213.482 134.551C213.482 157.096 206.868 173.921 193.639 185.025C180.529 196.017 162.812 201.513 140.489 201.513C113.323 201.513 91.886 195.008 76.1772 181.997C83.2639 174.818 89.76 166.91 95.6656 158.274C100.272 161.863 106.827 164.667 115.331 166.686C123.835 168.593 131.572 169.546 138.54 169.546C148.816 169.546 157.438 167.135 164.407 162.312C171.375 157.376 175.627 150.366 177.163 141.28C177.281 140.72 177.34 139.934 177.34 138.925C171.67 146.777 164.17 152.553 154.839 156.255C145.509 159.844 136.001 161.639 126.316 161.639C116.867 161.639 108.304 160.012 100.626 156.759C92.949 153.507 86.9253 149.076 82.5552 143.468C78.1851 137.747 76 131.354 76 124.287C76 114.08 79.0118 105.331 85.0355 98.0406C91.1773 90.7498 99.5042 85.2537 110.016 81.5522C120.528 77.8507 132.339 76 145.45 76ZM143.678 135.223C148.166 135.223 152.3 134.607 156.08 133.373C159.977 132.027 163.048 130.288 165.292 128.157C167.655 126.026 168.836 123.727 168.836 121.259C168.836 117.445 166.355 114.192 161.395 111.5C156.552 108.808 150.647 107.462 143.678 107.462C136.709 107.462 130.745 108.808 125.784 111.5C120.941 114.192 118.52 117.445 118.52 121.259C118.52 125.185 120.941 128.494 125.784 131.186C130.745 133.878 136.709 135.223 143.678 135.223Z" fill="#211C1D"/><path d="M679.55 1049C666.322 1049 654.57 1046.48 644.294 1041.43C633.9 1036.49 625.869 1029.6 620.199 1020.73C614.412 1011.87 611.518 1001.78 611.518 990.449C611.518 967.904 618.132 951.079 631.361 939.975C644.471 928.983 662.188 923.487 684.511 923.487C711.677 923.487 733.114 929.992 748.823 943.003C741.736 950.182 735.24 958.09 729.334 966.726C724.728 963.137 718.173 960.333 709.669 958.314C701.165 956.407 693.428 955.454 686.46 955.454C676.184 955.454 667.562 957.865 660.593 962.688C653.625 967.624 649.373 974.634 647.837 983.72C647.719 984.28 647.66 985.066 647.66 986.075C653.33 978.223 660.83 972.447 670.161 968.745C679.491 965.156 688.999 963.361 698.684 963.361C708.133 963.361 716.696 964.988 724.374 968.241C732.051 971.493 738.075 975.924 742.445 981.532C746.815 987.253 749 993.646 749 1000.71C749 1010.92 745.988 1019.67 739.965 1026.96C733.823 1034.25 725.496 1039.75 714.984 1043.45C704.472 1047.15 692.661 1049 679.55 1049ZM681.322 989.777C676.834 989.777 672.7 990.393 668.92 991.627C665.023 992.973 661.952 994.712 659.708 996.843C657.345 998.974 656.164 1001.27 656.164 1003.74C656.164 1007.55 658.645 1010.81 663.605 1013.5C668.448 1016.19 674.353 1017.54 681.322 1017.54C688.291 1017.54 694.255 1016.19 699.216 1013.5C704.059 1010.81 706.48 1007.55 706.48 1003.74C706.48 999.815 704.059 996.506 699.216 993.814C694.255 991.122 688.291 989.777 681.322 989.777Z" fill="#211C1D"/><g fill="#211C1D" transform="translate(95.91864000000001 260) scale(0.02232 -0.031)"><path d="M304 -14C457 -14 563 74 563 196C563 317 499 380 366 424L314 441C228 470 190 500 190 546C190 589 232 616 296 616C351 616 389 594 413 534C416 526 421 523 429 525L539 553C547 555 551 561 548 569C511 691 419 748 296 748C157 748 50 662 50 542C50 437 121 368 238 328L303 305C378 278 423 249 423 196C423 141 375 118 304 118C229 118 187 148 161 212C158 220 153 223 145 221L41 196C33 194 29 188 32 180C71 53 167 -14 304 -14Z" transform="translate(0 0)"/><path d="M93 0H202C210 0 215 5 215 13V313H555V13C555 5 560 0 568 0H677C685 0 690 5 690 13V721C690 729 685 734 677 734H568C560 734 555 729 555 721V440H215V721C215 729 210 734 202 734H93C85 734 80 729 80 721V13C80 5 85 0 93 0Z" transform="translate(597 0)"/><path d="M32 0H156C163 0 168 3 171 10L223 147H528L580 10C583 3 588 0 595 0H721C730 0 735 6 731 15L438 724C435 731 430 734 423 734H330C323 734 318 731 315 724L22 15C18 6 23 0 32 0ZM270 272 375 550 480 272Z" transform="translate(1367 0)"/><path d="M93 0H337C581 0 708 137 708 367C708 598 581 734 337 734H93C85 734 80 729 80 721V13C80 5 85 0 93 0ZM322 607C485 607 568 521 568 367C568 213 485 127 322 127H215V607Z" transform="translate(2120 0)"/><path d="M426 -14C640 -14 796 137 796 367C796 597 640 748 426 748C212 748 56 597 56 367C56 137 212 -14 426 -14ZM426 118C285 118 196 222 196 367C196 512 285 616 426 616C567 616 656 512 656 367C656 222 567 118 426 118Z" transform="translate(2884 0)"/><path d="M292 0H384C391 0 396 3 398 11L555 489L712 11C714 3 719 0 726 0H818C825 0 831 3 833 10L1089 719C1092 728 1087 734 1078 734H954C947 734 942 731 940 723L778 227L615 723C613 731 608 734 601 734H511C504 734 499 731 497 723L334 228L173 723C171 731 166 734 159 734H32C23 734 18 728 21 719L277 10C279 3 285 0 292 0Z" transform="translate(3736 0)"/></g><g transform="rotate(180 412.5 562.5)"><g fill="#211C1D" transform="translate(95.91864000000001 260) scale(0.02232 -0.031)"><path d="M304 -14C457 -14 563 74 563 196C563 317 499 380 366 424L314 441C228 470 190 500 190 546C190 589 232 616 296 616C351 616 389 594 413 534C416 526 421 523 429 525L539 553C547 555 551 561 548 569C511 691 419 748 296 748C157 748 50 662 50 542C50 437 121 368 238 328L303 305C378 278 423 249 423 196C423 141 375 118 304 118C229 118 187 148 161 212C158 220 153 223 145 221L41 196C33 194 29 188 32 180C71 53 167 -14 304 -14Z" transform="translate(0 0)"/><path d="M93 0H202C210 0 215 5 215 13V313H555V13C555 5 560 0 568 0H677C685 0 690 5 690 13V721C690 729 685 734 677 734H568C560 734 555 729 555 721V440H215V721C215 729 210 734 202 734H93C85 734 80 729 80 721V13C80 5 85 0 93 0Z" transform="translate(597 0)"/><path d="M32 0H156C163 0 168 3 171 10L223 147H528L580 10C583 3 588 0 595 0H721C730 0 735 6 731 15L438 724C435 731 430 734 423 734H330C323 734 318 731 315 724L22 15C18 6 23 0 32 0ZM270 272 375 550 480 272Z" transform="translate(1367 0)"/><path d="M93 0H337C581 0 708 137 708 367C708 598 581 734 337 734H93C85 734 80 729 80 721V13C80 5 85 0 93 0ZM322 607C485 607 568 521 568 367C568 213 485 127 322 127H215V607Z" transform="translate(2120 0)"/><path d="M426 -14C640 -14 796 137 796 367C796 597 640 748 426 748C212 748 56 597 56 367C56 137 212 -14 426 -14ZM426 118C285 118 196 222 196 367C196 512 285 616 426 616C567 616 656 512 656 367C656 222 567 118 426 118Z" transform="translate(2884 0)"/><path d="M292 0H384C391 0 396 3 398 11L555 489L712 11C714 3 719 0 726 0H818C825 0 831 3 833 10L1089 719C1092 728 1087 734 1078 734H954C947 734 942 731 940 723L778 227L615 723C613 731 608 734 601 734H511C504 734 499 731 497 723L334 228L173 723C171 731 166 734 159 734H32C23 734 18 728 21 719L277 10C279 3 285 0 292 0Z" transform="translate(3736 0)"/></g></g><g transform="translate(245 350)"><path d="M24 -54 A58 58 0 1 0 24 54 A47 47 0 0 1 24 -54Z" fill="#211C1D" fill-opacity=".32" stroke="#211C1D" stroke-width="9" stroke-linejoin="round"/></g><g transform="translate(412 350)"><path d="M24 -54 A58 58 0 1 0 24 54 A47 47 0 0 1 24 -54Z" fill="#211C1D" fill-opacity=".32" stroke="#211C1D" stroke-width="9" stroke-linejoin="round"/></g><g transform="translate(580 350)"><path d="M24 -54 A58 58 0 1 0 24 54 A47 47 0 0 1 24 -54Z" fill="#211C1D" fill-opacity=".32" stroke="#211C1D" stroke-width="9" stroke-linejoin="round"/></g><g transform="translate(245 560)"><path d="M24 -54 A58 58 0 1 0 24 54 A47 47 0 0 1 24 -54Z" fill="#211C1D" fill-opacity=".32" stroke="#211C1D" stroke-width="9" stroke-linejoin="round"/></g><g transform="translate(412 560)"><path d="M24 -54 A58 58 0 1 0 24 54 A47 47 0 0 1 24 -54Z" fill="#211C1D" fill-opacity=".32" stroke="#211C1D" stroke-width="9" stroke-linejoin="round"/></g><g transform="translate(580 560)"><path d="M24 -54 A58 58 0 1 0 24 54 A47 47 0 0 1 24 -54Z" fill="#211C1D" fill-opacity=".32" stroke="#211C1D" stroke-width="9" stroke-linejoin="round"/></g><g transform="translate(245 770)"><path d="M24 -54 A58 58 0 1 0 24 54 A47 47 0 0 1 24 -54Z" fill="#211C1D" fill-opacity=".32" stroke="#211C1D" stroke-width="9" stroke-linejoin="round"/></g><g transform="translate(412 770)"><path d="M24 -54 A58 58 0 1 0 24 54 A47 47 0 0 1 24 -54Z" fill="#211C1D" fill-opacity=".32" stroke="#211C1D" stroke-width="9" stroke-linejoin="round"/></g><g transform="translate(580 770)"><path d="M24 -54 A58 58 0 1 0 24 54 A47 47 0 0 1 24 -54Z" fill="#211C1D" fill-opacity=".32" stroke="#211C1D" stroke-width="9" stroke-linejoin="round"/></g></svg>
