<svg width="825" height="1125" viewBox="0 0 825 1125" fill="none" xmlns="http://www.w3.org/2000/svg">
<g clip-path="url(#clip0_318_531)">
<path d="M157.033 112.299C170.48 112.299 181.744 114.1 190.827 117.702C200.027 121.191 206.868 125.974 211.351 132.052C215.951 138.018 218.251 144.715 218.251 152.143C218.251 169.027 212.058 181.295 199.673 188.949C187.406 196.49 170.952 200.261 150.31 200.261C132.971 200.261 117.696 197.503 104.486 191.988C91.3928 186.36 81.8976 176.962 76 163.793C82.4874 162.892 89.5645 161.429 97.2315 159.403C105.016 157.377 112.035 155.295 118.286 153.156C120.763 157.996 124.243 161.542 128.725 163.793C133.207 165.931 139.223 167.001 146.772 167.001C154.792 167.001 161.398 165.763 166.588 163.286C171.895 160.81 174.549 157.377 174.549 152.988C174.549 148.485 172.249 144.715 167.649 141.676C163.049 138.637 156.031 137.117 146.595 137.117C140.461 137.117 134.858 138.187 129.786 140.325C124.714 142.351 121.058 145.278 118.817 149.104H77.9462C80.7771 137.511 83.2541 125.018 85.3772 111.624C87.6183 98.2296 88.9748 86.3551 89.4466 76H213.651V108.753C200.558 107.966 188.173 107.515 176.496 107.403C164.936 107.178 148.718 107.065 127.84 107.065L126.071 116.52C135.035 113.706 145.356 112.299 157.033 112.299Z" fill="#FFAB00"/>
<path d="M667.967 1012.7C654.52 1012.7 643.256 1010.9 634.173 1007.3C624.973 1003.81 618.132 999.026 613.649 992.948C609.049 986.982 606.749 980.285 606.749 972.857C606.749 955.973 612.942 943.705 625.327 936.051C637.594 928.51 654.048 924.739 674.69 924.739C692.029 924.739 707.304 927.497 720.514 933.012C733.607 938.64 743.102 948.038 749 961.207C742.513 962.108 735.436 963.571 727.769 965.597C719.984 967.623 712.965 969.705 706.714 971.844C704.237 967.004 700.757 963.458 696.275 961.207C691.793 959.069 685.777 957.999 678.228 957.999C670.208 957.999 663.602 959.237 658.412 961.714C653.105 964.19 650.451 967.623 650.451 972.012C650.451 976.515 652.751 980.285 657.351 983.324C661.951 986.363 668.969 987.883 678.405 987.883C684.539 987.883 690.142 986.813 695.214 984.675C700.286 982.649 703.942 979.722 706.183 975.896H747.054C744.223 987.489 741.746 999.982 739.623 1013.38C737.382 1026.77 736.025 1038.64 735.553 1049H611.349V1016.25C624.442 1017.03 636.827 1017.49 648.504 1017.6C660.064 1017.82 676.282 1017.93 697.16 1017.93L698.929 1008.48C689.965 1011.29 679.644 1012.7 667.967 1012.7Z" fill="#FFAB00"/>
<path d="M116.38 259L112.874 226.344H119.256L121.056 246.958L122.893 226.344H128.979L130.723 246.958L132.467 226.344H138.924L135.362 259H127.532L125.899 243.284L124.34 259H116.38ZM140.576 259V226.344H146.884V259H140.576ZM149.482 259V226.344H156.013V253.434H162.73V259H149.482ZM164.585 259V226.344H173.566C175.916 226.344 177.685 226.999 178.873 228.311C180.06 229.609 180.654 231.514 180.654 234.025V249.314C180.654 252.407 180.11 254.794 179.021 256.477C177.945 258.159 176.052 259 173.343 259H164.585ZM171.154 253.229H172.286C173.486 253.229 174.085 252.648 174.085 251.485V234.638C174.085 233.549 173.937 232.85 173.64 232.541C173.356 232.219 172.768 232.059 171.877 232.059H171.154V253.229Z" fill="#FFAB00"/>
<path d="M708.62 866L712.126 898.656H705.744L703.944 878.042L702.107 898.656H696.021L694.277 878.042L692.533 898.656H686.076L689.638 866H697.468L699.101 881.716L700.66 866H708.62ZM684.424 866V898.656H678.116V866H684.424ZM675.518 866V898.656H668.987V871.566H662.27V866H675.518ZM660.415 866V898.656H651.434C649.084 898.656 647.315 898.001 646.127 896.689C644.94 895.391 644.346 893.486 644.346 890.975V875.686C644.346 872.593 644.89 870.206 645.979 868.523C647.055 866.841 648.948 866 651.657 866H660.415ZM653.846 871.771H652.714C651.514 871.771 650.915 872.352 650.915 873.515V890.362C650.915 891.451 651.063 892.15 651.36 892.459C651.644 892.781 652.232 892.941 653.123 892.941H653.846V871.771Z" fill="#FFAB00"/>
<path d="M273.764 586.415L281.304 520.73H316.684L297.254 626H252.739L242.879 567.275L231.424 626H188.794L169.364 520.73H204.744L212.139 585.545L223.739 520.73H262.454L273.764 586.415ZM412.486 549.585C400.983 549.005 392.476 548.667 386.966 548.57V598.16C392.573 598.063 401.08 597.725 412.486 597.145V626H328.241V597.145C339.358 597.725 347.816 598.063 353.616 598.16V548.57C347.816 548.667 339.358 549.005 328.241 549.585V520.73H412.486V549.585ZM459.486 596.71C487.519 596.517 510.719 596.033 529.086 595.26C527.829 600.19 527.056 604.927 526.766 609.47C526.476 614.013 526.331 619.523 526.331 626H424.106C424.879 607.247 425.266 589.702 425.266 573.365C425.266 557.028 424.879 539.483 424.106 520.73H459.486V596.71ZM584.212 519.135C602.385 519.135 616.74 521.358 627.277 525.805C637.813 530.155 645.16 536.245 649.317 544.075C653.57 551.808 655.697 561.33 655.697 572.64C655.697 583.37 653.28 592.747 648.447 600.77C643.613 608.793 636.363 615.028 626.697 619.475C617.03 623.825 605.14 626 591.027 626C582.423 626 573.675 626 564.782 626C555.888 626 546.898 625.952 537.812 625.855C538.585 606.812 538.972 589.073 538.972 572.64C538.972 556.013 538.585 538.662 537.812 520.585C549.315 519.618 564.782 519.135 584.212 519.135ZM595.087 597.145C604.077 597.145 610.07 594.97 613.067 590.62C616.063 586.27 617.562 580.277 617.562 572.64C617.562 565.293 615.967 559.348 612.777 554.805C609.683 550.262 603.787 547.99 595.087 547.99C585.71 547.99 578.702 548.28 574.062 548.86V597.145H595.087Z" fill="#FF6300" fill-opacity="0.42"/>
</g>
<defs>
<clipPath id="clip0_318_531">
<rect width="825" height="1125" fill="white"/>
</clipPath>
</defs>
</svg>
