<svg preserveAspectRatio="none" overflow="visible" style="display: block;" width="825" height="1125" viewBox="0 0 825 1125" fill="none" xmlns="http://www.w3.org/2000/svg">
<g id="windn[face,3]">
<rect width="825" height="1125" fill="white"/>
<g id="Vector">
<path d="M212.79 76C212.029 95.0284 211.649 115.408 211.649 137.139C211.649 158.982 212.029 179.418 212.79 198.446H154.422L114.966 106.231L117.901 198.446H76C76.8695 176.603 77.3043 156.167 77.3043 137.139C77.3043 118.223 76.8695 97.8432 76 76H135.999L175.617 170.748L172.845 76H212.79Z" fill="#211C1D"/>
<path d="M103.348 266.002C103.203 266.002 103.112 265.909 103.076 265.721L96.6631 227.045C96.6269 226.895 96.6812 226.82 96.8262 226.82H102.913C103.058 226.82 103.148 226.895 103.185 227.045L106.663 252.491L110.25 227.045C110.286 226.895 110.395 226.82 110.576 226.82H115.467C115.612 226.82 115.703 226.895 115.739 227.045L119.271 252.491L122.804 227.045C122.84 226.895 122.931 226.82 123.076 226.82H129.108C129.289 226.82 129.362 226.895 129.325 227.045L122.858 265.721C122.822 265.796 122.768 265.871 122.695 265.946C122.623 265.984 122.586 266.002 122.586 266.002H116.01C115.902 266.002 115.811 265.909 115.739 265.721L112.967 245.51L110.195 265.721C110.159 265.909 110.069 266.002 109.924 266.002H103.348Z" fill="#211C1D"/>
<path d="M132.798 266.002C132.617 266.002 132.527 265.909 132.527 265.721L132.581 227.045C132.581 226.895 132.654 226.82 132.798 226.82H138.885C139.03 226.82 139.103 226.895 139.103 227.045L139.157 265.721C139.157 265.909 139.085 266.002 138.94 266.002H132.798Z" fill="#211C1D"/>
<path d="M144.426 266.002C144.137 266.002 143.992 265.871 143.992 265.608L143.937 227.27C143.937 226.97 144.082 226.82 144.372 226.82H149.263L158.448 249.001L158.176 227.27C158.176 226.97 158.339 226.82 158.665 226.82H164.046C164.263 226.82 164.372 226.97 164.372 227.27L164.426 265.665C164.426 265.89 164.335 266.002 164.154 266.002H159.372L149.97 245.285L150.35 265.552C150.35 265.852 150.187 266.002 149.861 266.002H144.426Z" fill="#211C1D"/>
<path d="M169.419 266.002C169.238 266.002 169.147 265.909 169.147 265.721L169.256 227.045C169.256 226.895 169.328 226.82 169.473 226.82L179.636 226.763C181.629 226.726 183.44 227.214 185.07 228.227C186.737 229.24 188.06 230.61 189.038 232.337C190.016 234.026 190.505 235.902 190.505 237.966V254.124C190.505 256.301 189.998 258.29 188.983 260.091C187.969 261.855 186.61 263.263 184.907 264.313C183.205 265.364 181.284 265.909 179.147 265.946L169.419 266.002ZM175.777 259.078H179.147C180.487 259.078 181.61 258.59 182.516 257.614C183.458 256.638 183.929 255.475 183.929 254.124V237.91C183.929 236.709 183.494 235.677 182.625 234.814C181.792 233.913 180.795 233.482 179.636 233.519L175.832 233.575L175.777 259.078Z" fill="#211C1D"/>
<path d="M612.21 1049C612.971 1029.97 613.351 1009.59 613.351 987.861C613.351 966.018 612.971 945.582 612.21 926.554H670.578L710.034 1018.77L707.099 926.554H749C748.13 948.397 747.696 968.833 747.696 987.861C747.696 1006.78 748.13 1027.16 749 1049H689.001L649.383 954.252L652.155 1049H612.21Z" fill="#211C1D"/>
<path d="M721.652 858.998C721.797 858.998 721.888 859.091 721.924 859.279L728.337 897.955C728.373 898.105 728.319 898.18 728.174 898.18H722.087C721.942 898.18 721.852 898.105 721.815 897.955L718.337 872.509L714.75 897.955C714.714 898.105 714.605 898.18 714.424 898.18H709.533C709.388 898.18 709.297 898.105 709.261 897.955L705.729 872.509L702.196 897.955C702.16 898.105 702.069 898.18 701.924 898.18H695.892C695.711 898.18 695.638 898.105 695.675 897.955L702.142 859.279C702.178 859.204 702.232 859.129 702.305 859.054C702.377 859.016 702.414 858.998 702.414 858.998H708.99C709.098 858.998 709.189 859.091 709.261 859.279L712.033 879.49L714.805 859.279C714.841 859.091 714.931 858.998 715.076 858.998H721.652Z" fill="#211C1D"/>
<path d="M692.202 858.998C692.383 858.998 692.473 859.091 692.473 859.279L692.419 897.955C692.419 898.105 692.346 898.18 692.202 898.18H686.115C685.97 898.18 685.897 898.105 685.897 897.955L685.843 859.279C685.843 859.091 685.915 858.998 686.06 858.998H692.202Z" fill="#211C1D"/>
<path d="M680.574 858.998C680.863 858.998 681.008 859.129 681.008 859.392L681.063 897.73C681.063 898.03 680.918 898.18 680.628 898.18H675.737L666.552 875.999L666.824 897.73C666.824 898.03 666.661 898.18 666.335 898.18H660.954C660.737 898.18 660.628 898.03 660.628 897.73L660.574 859.335C660.574 859.11 660.665 858.998 660.846 858.998H665.628L675.03 879.715L674.65 859.448C674.65 859.148 674.813 858.998 675.139 858.998H680.574Z" fill="#211C1D"/>
<path d="M655.581 858.998C655.763 858.998 655.853 859.091 655.853 859.279L655.744 897.955C655.744 898.105 655.672 898.18 655.527 898.18L645.364 898.237C643.371 898.274 641.56 897.786 639.93 896.773C638.263 895.76 636.94 894.39 635.962 892.663C634.984 890.974 634.495 889.098 634.495 887.033V870.876C634.495 868.699 635.002 866.71 636.017 864.909C637.031 863.145 638.39 861.737 640.093 860.686C641.795 859.636 643.716 859.091 645.853 859.054L655.581 858.998ZM649.223 865.922H645.853C644.513 865.922 643.39 866.41 642.484 867.386C641.542 868.362 641.071 869.525 641.071 870.876V887.09C641.071 888.291 641.506 889.323 642.375 890.186C643.208 891.087 644.205 891.518 645.364 891.481L649.168 891.425L649.223 865.922Z" fill="#211C1D"/>
<path d="M471.756 416.516C466.823 401.868 429.992 382.11 413.55 388.242C406.315 393.011 408.759 410.726 419.14 424.01C432.117 440.615 415.523 578.324 419.14 641.684C429.063 695.058 462.571 713.902 496.09 713.902C569.094 713.902 596.059 681.881 598.361 661.783C580.091 636.547 581.802 564.957 580.275 538.468C574.677 561.662 553.52 635.992 547.719 646.113C540.468 658.764 489.184 667.574 465.508 655.587C451.817 648.656 451.605 583.327 453.895 566.326C467.902 556.412 506.853 530.431 535.881 514.282C559.491 514.282 558.9 510.49 558.9 497.931C558.9 483.964 538.511 459.437 505.627 453.646L505.482 454.303C503.692 462.448 501.192 473.823 498.721 481.58C484.581 499.975 463.534 519.611 454.984 526.886C454.984 504.062 453.998 443.768 471.756 416.516Z" fill="#B2B2B2"/>
<path d="M412.399 384.932C425.629 380.717 437.346 385.483 448.223 390.071C458.866 395.574 469.907 400.329 476.885 414.664L477.798 417.16L476.259 419.664C476.241 419.693 476.22 419.722 476.203 419.752C463.037 445.352 462.287 477.483 462.556 508.925C472.726 498.972 482.469 488.375 491.003 477.375C493.327 469.316 495.17 460.435 497.053 451.624L498.829 443.271L507.102 444.667C532.727 450.248 560.987 461.92 567.958 497.93C567.958 498.233 567.958 498.535 567.958 498.835C567.871 501.763 568.303 504.697 566.982 510.028C566.31 512.67 564.365 516.173 561.812 518.224C559.294 520.319 556.908 521.204 554.934 521.823C548.221 523.607 543.255 523.591 538.245 523.63C512.482 538.259 486.986 554.732 462.397 571.633C461.356 584.304 461.598 598.48 462.411 611.744C462.905 619.137 463.664 626.544 464.969 633.468C465.627 636.927 466.439 640.296 467.467 643.155C467.987 644.599 468.546 645.837 469.077 646.717C469.303 647.126 469.539 647.396 469.653 647.524C489.705 656.655 527.853 651.634 540.364 641.59C552.523 610.515 563.051 571.582 572.388 536.425L588.388 537.968C590.381 579.555 587.18 625.365 604.363 657.119L606.153 659.564L605.81 662.697C590.327 715.901 535.45 719.965 496.091 720.849C453.752 723.212 417.913 683.275 413.425 642.825L413.329 642.04C411.517 578.562 420.046 516.393 419.938 454.329C419.68 444.582 419.497 432.524 416.177 426.495C411.912 420.897 408.717 414.493 406.989 407.514C405.689 400.851 403.678 391.777 411.726 385.273L412.399 384.932ZM465.528 416.464C456.688 402.236 432.479 388.704 414.971 391.511C412.493 393.696 412.451 400.38 413.962 405.615C415.509 411.369 418.391 416.876 422.104 421.525C428.699 433.563 427.301 443.47 428.186 454.098C429.523 517.08 422.184 579.691 424.941 641.08C430.713 678.36 459.866 708.928 496.091 706.954C533.103 707.093 581.161 695.894 590.433 662.734C578.872 639.665 575.421 616.375 574.136 593.367C568.854 612.002 562.894 630.771 555.072 650.635C546.632 661.946 539.09 662.35 531.504 665.241C523.93 667.483 516.373 668.832 508.747 669.617C493.489 670.867 477.977 671.298 461.643 663.775C453.825 659.047 452.838 653.86 450.951 649.602C449.374 645.247 448.418 641.137 447.614 637.048C446.056 628.932 445.23 620.956 444.667 613.038C443.687 597.057 443.274 581.931 445.013 565.043L445.569 560.963L448.835 558.658C475.818 539.9 502.933 522.231 531.596 506.022L535.881 504.904C540.983 504.903 546.708 504.713 549.719 503.849C549.804 502.734 549.867 500.767 549.843 498.857C549.842 498.557 549.843 498.247 549.843 497.93C548.143 485.023 530.274 470.133 512.172 464.492C510.655 470.991 509.016 477.565 506.847 484.357L505.414 487.099C491.591 504.397 476.391 519.086 459.906 533.093L447.037 543.785L447.228 526.884C448.379 490.48 446.714 451.687 465.528 416.464Z" fill="#211C1D"/>
<path d="M393.49 427.757C390.055 421.036 344.492 396.417 327.392 393.692L348.767 450.921C350.671 462.844 349.872 486.068 349.872 503.147C345.185 502.019 346.261 502.019 338.573 502.019C328.296 502.019 273.034 529.344 226.638 523.254C284.633 582.507 326.58 547.943 349.872 541.194C349.872 554.637 351.187 572.042 349.872 583.411C345.292 589.341 257.696 655.737 230.588 650.806C224.77 667.381 261.589 692.601 276.474 692.996C293.929 683.271 334.322 633.151 348.767 620.138C350.179 639.858 340.405 668.607 338.573 674.3C336.283 681.416 346.854 726.518 361.834 737.905C402.053 725.962 381.944 497.926 387.9 462.844C387.136 454.146 396.925 434.478 393.49 427.757Z" fill="#B2B2B2"/>
<path d="M327.908 390.214L329.904 390.643C350.438 395.213 367.927 404.331 385.793 414.426C387.796 415.631 389.823 416.909 391.854 418.337C392.85 419.039 393.883 419.803 394.946 420.697C396.062 421.742 397.008 422.196 398.636 424.934C401.257 431.04 399.957 434.371 399.613 437.814C399.048 441.162 398.274 444.198 397.522 447.149C396.074 452.761 394.251 459.469 394.599 462.213L394.525 464.053C392.997 528.548 399.875 598.167 394.472 666.212C393.373 679.698 391.92 693.095 388.988 706.859C387.491 713.69 385.667 720.609 382.662 727.564C379.468 734.308 375.479 743.081 364.32 746.886L360.077 748.151L356.497 745.435C344.185 734.633 340.842 722.922 336.478 711.334C334.515 705.506 332.871 699.614 331.549 693.565C330.892 690.534 330.315 687.467 329.879 684.223C329.67 682.651 329.477 680.903 329.387 679.121C329.392 677.08 328.956 675.769 330.112 671.38C332.985 662.606 335.707 653.549 337.578 644.698C320.686 663.394 304.053 683.737 280.479 700.709L278.536 701.801L276.258 701.75C260.556 699.84 251.683 692.952 241.633 685.546C236.829 681.677 232.247 677.39 228.22 671.849C224.566 666.502 219.546 658.556 222.923 647.919L225.216 641.285L231.999 642.484C266.966 638.015 311.079 604.47 342.829 579.67C343.501 570.912 343.127 561.385 342.917 551.628C325.636 558.463 304.931 567.047 283.911 563.426C259.187 559.877 238.81 544.588 222.467 527.632L209.935 514.943L227.385 517.15C264.244 522.034 298.656 507.389 338.572 497.05C340.499 497.078 342.317 497.066 344.502 497.178C344.744 497.189 345.006 497.207 345.277 497.233C345.543 482.315 346.241 467.386 344.93 453.266C344.881 452.834 344.817 452.388 344.757 451.961C337.905 432.964 331.063 413.963 324.225 394.96L322.127 389.518L327.908 390.214ZM352.598 449.388L352.817 450.227C352.924 450.855 353.024 451.52 353.111 452.144C355.109 469.667 354.292 486.403 354.544 503.149L354.48 509.295L348.815 507.862C347.857 507.644 346.875 507.4 346.077 507.225C345.276 507.052 344.868 507.008 344.049 506.975C342.441 506.927 340.458 506.97 338.572 506.986C310.155 515.455 277.296 529.217 243.172 530.084C255.955 540.431 270.248 548.136 285.595 550.012C306.596 553.062 324.909 543.004 347.97 534.153L356.996 531.609L356.932 541.193C356.985 554.918 358.543 568.809 357.165 584.318L356.897 586.52L355.609 588.166C317.912 617.784 288.578 647.296 238.824 657.442C242.688 666.288 261.991 681.199 274.351 683.867C297.614 666.133 318.303 637.535 342.995 613.265L356.277 601.35L357.537 619.463C358.425 641.043 352.651 659.283 347.032 677.222C347.776 688.055 354.179 713.054 363.011 725.617C364.128 724.086 365.274 722.106 366.191 719.859C368.374 714.822 370.018 708.841 371.329 702.769C373.947 690.457 375.371 677.642 376.42 664.673C381.746 598.29 376.275 532.151 381.218 462.451C381.405 453.796 383.903 449.151 385.446 443.48C386.317 440.676 387.149 437.927 387.714 435.387C387.994 434.127 388.202 432.907 388.273 431.927C388.347 431.231 388.261 430.648 388.273 430.516C388.086 430.298 387.79 429.993 387.509 429.725C386.858 429.105 386.065 428.44 385.273 427.808C383.645 426.513 381.859 425.228 380.072 424C365.432 414.424 349.33 404.854 333.169 399.179C339.649 415.913 346.13 432.649 352.598 449.388Z" fill="#211C1D"/>
<path d="M357.075 388.963C346.42 394.845 332.752 392.636 321.942 389.394C323.143 397.755 330.944 407.024 335.219 409.923C345.567 416.941 352.556 419.403 374.593 415.043C377.969 417.957 381.304 420.49 384.582 422.672C397.305 480.328 490.939 488.253 493.528 429.328C529.813 443.843 545.139 366.159 494.739 362.264C496.273 317.845 439.039 306.801 426.352 340.832C387.213 308.119 338.149 356.185 357.075 388.963Z" fill="#B2B2B2"/>
<path d="M502.208 355.81C500.642 318.354 445.769 297.664 424.219 329.979C390.465 307.515 335.434 342.558 348.952 385.341C341.46 387.308 332.245 385.998 323.597 383.469L314.624 380.853L316.052 390.3C318.484 401.57 323.801 408.293 332.072 414.904C337.843 418.974 346.086 422.801 353.917 422.896C360.789 423.163 367.054 422.167 373.193 420.969C376.285 423.463 379.539 425.828 382.94 427.98C386.119 440.168 393.436 451.287 403.084 459.227C418.763 472.125 439.479 478.261 459.935 475.015C477.82 473.159 495.527 457.436 499.644 438.302C506.264 438.876 513.387 437.221 518.675 432.945C526.476 426.933 530.671 418.334 532.758 409.737C535.604 397.535 534.383 383.971 527.258 372.765C521.547 363.565 511.889 357.98 502.208 355.81ZM466.098 329.81C479.569 334.043 488.454 347.215 487.549 361.996L487.29 369.149L494.202 369.694C512.633 370.033 523.269 388.239 518.688 406.151C515.811 418.677 506.558 427.164 496.055 422.545L487.062 418.842L486.519 428.997C487.455 465.802 435.728 473.058 408.3 452.021C401.315 447.083 395.422 440.457 391.377 432.687C399.371 436.528 408.041 438.963 417.262 438.999C434.178 439.823 455.618 425.86 452.673 404.606C449.953 380.788 422.382 370.354 403.58 379.695C397.374 382.821 391.991 389.956 392.706 397.979C393.173 404.27 397.172 409.396 401.593 412.414C405.699 415.856 413.718 415.193 416.722 409.834C418.309 407.368 418.868 403.847 417.546 400.876C416.234 397.884 413.684 396.235 411.357 395.339C410.686 395.083 409.942 395.104 409.287 395.407C408.633 395.71 408.121 396.268 407.863 396.959C407.606 397.65 407.623 398.42 407.911 399.1C408.199 399.78 408.736 400.313 409.399 400.591C412.586 401.928 413.341 404.247 411.882 406.495C410.346 408.71 407.582 409.061 405.113 407.143C401.755 404.685 399.44 401.158 399.291 397.498C399.009 392.857 402.235 388.444 406.746 386.293C421.423 379.507 443.185 388.618 444.161 405.798C445.933 419.44 431.164 429.794 417.318 428.939C403.124 428.61 389.416 420.836 378.023 410.78L376.134 409.113L373.589 409.592C360.094 412.072 348.565 413.272 338.364 404.942C336.29 403.355 334.059 400.89 332.178 398.177C341.108 399.681 350.67 399.513 360.008 394.663L365.77 391.538L362.428 385.647C345.93 354.967 397.138 319.728 422.021 346.395L429.335 352.558L432.788 343.406C437.208 330.427 452.876 325.229 466.098 329.81Z" fill="#211C1D"/>
</g>
</g>
</svg>
